<svg width="19" height="17" viewBox="0 0 19 17" fill="none" xmlns="http://www.w3.org/2000/svg">
<path d="M4.15077 9.10137C5.31014 8.64199 6.23983 8.7623 6.93984 9.46231C7.63984 10.1623 7.84764 11.2779 7.56326 12.8092C7.34452 13.9467 6.86328 14.8217 6.11952 15.4342C5.39764 16.0248 4.55546 16.3201 3.59296 16.3201C2.28045 16.3201 1.37265 15.817 0.869516 14.8107C0.366397 13.7826 0.267958 12.4045 0.574208 10.6764C0.749204 9.73574 1.03358 8.78419 1.42732 7.82167C1.82109 6.85917 2.34609 5.87481 3.00232 4.86856C3.65858 3.86232 4.51171 2.9873 5.56171 2.24356C6.61171 1.4998 7.77108 1.01856 9.03984 0.799805L8.71171 4.27792C7.63984 4.49668 6.68827 5.05449 5.85703 5.95137C5.02576 6.82636 4.45701 7.87636 4.15077 9.10137ZM14.0273 9.10137C15.1867 8.64199 16.1164 8.7623 16.8164 9.46231C17.5164 10.1623 17.7242 11.2779 17.4398 12.8092C17.2211 13.9467 16.7398 14.8217 15.9961 15.4342C15.2742 16.0248 14.432 16.3201 13.4695 16.3201C12.157 16.3201 11.2492 15.817 10.7461 14.8107C10.243 13.7826 10.1445 12.4045 10.4508 10.6764C10.6258 9.73574 10.9102 8.78419 11.3039 7.82167C11.6976 6.85917 12.2226 5.87481 12.8789 4.86856C13.5352 3.86232 14.3883 2.9873 15.4383 2.24356C16.4883 1.4998 17.6477 1.01856 18.9164 0.799805L18.5883 4.27792C17.5164 4.49668 16.5648 5.05449 15.7336 5.95137C14.9023 6.82636 14.3336 7.87636 14.0273 9.10137Z" fill="#F4F4F4"/>
</svg>
