<svg width="20" height="20" viewBox="0 0 20 20" fill="none" xmlns="http://www.w3.org/2000/svg">
    <path
        d="M11.1671 10.5917C11.2452 10.5142 11.3072 10.4221 11.3495 10.3205C11.3918 10.219 11.4136 10.11 11.4136 10C11.4136 9.89001 11.3918 9.78109 11.3495 9.67954C11.3072 9.57799 11.2452 9.48582 11.1671 9.40835L7.34211 5.59168C7.264 5.51421 7.20201 5.42204 7.1597 5.32049C7.11739 5.21894 7.09561 5.11002 7.09561 5.00001C7.09561 4.89 7.11739 4.78108 7.1597 4.67953C7.20201 4.57798 7.264 4.48581 7.34211 4.40834C7.49824 4.25313 7.70945 4.16602 7.92961 4.16602C8.14976 4.16602 8.36097 4.25313 8.51711 4.40834L12.3421 8.23335C12.8103 8.7021 13.0732 9.33752 13.0732 10C13.0732 10.6625 12.8103 11.2979 12.3421 11.7667L8.51711 15.5917C8.36189 15.7457 8.15239 15.8324 7.93377 15.8334C7.8241 15.834 7.71538 15.813 7.61385 15.7715C7.51232 15.73 7.41997 15.6689 7.34211 15.5917C7.264 15.5142 7.20201 15.4221 7.1597 15.3205C7.11739 15.219 7.09561 15.11 7.09561 15C7.09561 14.89 7.11739 14.7811 7.1597 14.6795C7.20201 14.578 7.264 14.4858 7.34211 14.4084L11.1671 10.5917Z"
        fill="#242424" />
</svg>